<?xml version="1.0" encoding="UTF-8" standalone="no"?><!DOCTYPE svg PUBLIC "-//W3C//DTD SVG 1.1//EN" "http://www.w3.org/Graphics/SVG/1.1/DTD/svg11.dtd"><svg width="100%" height="100%" viewBox="0 0 50 50" version="1.1" xmlns="http://www.w3.org/2000/svg" xmlns:xlink="http://www.w3.org/1999/xlink" xml:space="preserve" style="fill-rule:evenodd;clip-rule:evenodd;stroke-linejoin:round;stroke-miterlimit:1.41421;"><path d="M21,2c-1.645,0 -3,1.355 -3,3l0,2l-7.813,0c-0.133,-0.028 -0.272,-0.028 -0.406,0l-1.781,0c-0.031,-0.001 -0.063,-0.001 -0.094,0c-0.531,0.025 -0.954,0.468 -0.954,1c0,0.549 0.452,1.001 1.001,1.001c0.016,0 0.031,0 0.047,-0.001l1,0l0,36c0,1.645 1.355,3 3,3l26,0c1.645,0 3,-1.355 3,-3l0,-36l1,0c0.005,0 0.009,0 0.014,0c0.549,0 1,-0.451 1,-1c0,-0.549 -0.451,-1 -1,-1c-0.005,0 -0.009,0 -0.014,0l-1.813,0l-0.406,0l-7.781,0l0,-2c0,-1.645 -1.355,-3 -3,-3l-8,0Zm0,2l8,0c0.555,0 1,0.445 1,1l0,2l-10,0l0,-2c0,-0.555 0.445,-1 1,-1Zm-10,5l28,0l0,36c0,0.555 -0.445,1 -1,1l-26,0c-0.555,0 -1,-0.445 -1,-1l0,-36Zm7.906,4.969c-0.042,0.007 -0.084,0.018 -0.125,0.031c-0.464,0.104 -0.792,0.525 -0.781,1l0,25c0,0.005 0,0.009 0,0.014c0,0.549 0.451,1 1,1c0.549,0 1,-0.451 1,-1c0,-0.005 0,-0.009 0,-0.014l0,-25c0,-0.012 0.001,-0.024 0.001,-0.036c0,-0.548 -0.452,-1 -1,-1c-0.032,0 -0.063,0.002 -0.095,0.005Zm6,0c-0.042,0.007 -0.084,0.018 -0.125,0.031c-0.464,0.104 -0.792,0.525 -0.781,1l0,25c0,0.005 0,0.009 0,0.014c0,0.549 0.451,1 1,1c0.549,0 1,-0.451 1,-1c0,-0.005 0,-0.009 0,-0.014l0,-25c0,-0.012 0.001,-0.024 0.001,-0.036c0,-0.548 -0.452,-1 -1,-1c-0.032,0 -0.063,0.002 -0.095,0.005Zm6,0c-0.042,0.007 -0.084,0.018 -0.125,0.031c-0.464,0.104 -0.792,0.525 -0.781,1l0,25c0,0.005 0,0.009 0,0.014c0,0.549 0.451,1 1,1c0.549,0 1,-0.451 1,-1c0,-0.005 0,-0.009 0,-0.014l0,-25c0,-0.012 0.001,-0.024 0.001,-0.036c0,-0.548 -0.452,-1 -1,-1c-0.032,0 -0.063,0.002 -0.095,0.005Z" style="fill:#ccc;fill-rule:nonzero;stroke:#ccc;stroke-width:1px;"/></svg>