<?xml version="1.0" encoding="UTF-8" standalone="no"?><!DOCTYPE svg PUBLIC "-//W3C//DTD SVG 1.1//EN" "http://www.w3.org/Graphics/SVG/1.1/DTD/svg11.dtd"><svg width="100%" height="100%" viewBox="0 0 32 32" version="1.1" xmlns="http://www.w3.org/2000/svg" xmlns:xlink="http://www.w3.org/1999/xlink" xml:space="preserve" style="fill-rule:evenodd;clip-rule:evenodd;stroke-linejoin:round;stroke-miterlimit:1.41421;"><path d="M25.514,1.591c-1.242,0 -2.483,0.481 -3.448,1.446l-18.503,18.503l-0.26,0.26l-0.074,0.37l-1.298,6.527l-0.371,1.742l1.743,-0.37l6.526,-1.298l0.371,-0.074l0.26,-0.26l18.503,-18.503c1.93,-1.93 1.93,-4.967 0,-6.897c-0.965,-0.965 -2.206,-1.446 -3.449,-1.446Zm0,2.262c0.597,0 1.203,0.275 1.78,0.853c1.156,1.155 1.156,2.404 0,3.559l-0.853,0.816l-3.522,-3.523l0.816,-0.852c0.577,-0.578 1.183,-0.853 1.779,-0.853Zm-4.264,3.374l3.523,3.523l-14.35,14.35c-0.777,-1.52 -2.003,-2.746 -3.523,-3.523l14.35,-14.35Zm-15.87,16.278c1.423,0.577 2.538,1.692 3.115,3.115l-3.894,0.779l0.779,-3.894Z" style="fill:#ccc;fill-rule:nonzero;"/></svg>