<?xml version="1.0" encoding="UTF-8" standalone="no"?><!DOCTYPE svg PUBLIC "-//W3C//DTD SVG 1.1//EN" "http://www.w3.org/Graphics/SVG/1.1/DTD/svg11.dtd"><svg width="100%" height="100%" viewBox="0 0 50 50" version="1.1" xmlns="http://www.w3.org/2000/svg" xmlns:xlink="http://www.w3.org/1999/xlink" xml:space="preserve" style="fill-rule:evenodd;clip-rule:evenodd;stroke-linejoin:round;stroke-miterlimit:1.41421;"><path d="M18.5,2.563c-4.133,-0.001 -7.5,3.37 -7.5,7.499c0,1.16 0.273,2.272 0.75,3.25l1.781,-0.875c-0.347,-0.711 -0.531,-1.52 -0.531,-2.375c0,-3.05 2.447,-5.5 5.5,-5.5c3.046,0 5.5,2.451 5.5,5.5l2,0c0,-4.13 -3.372,-7.5 -7.5,-7.5l0,0.001Zm18.688,4.375c-0.043,0.008 -0.085,0.019 -0.126,0.032c-0.021,0.009 -0.042,0.02 -0.062,0.031c-2.535,0.636 -5.436,2.155 -7.281,5.594c-1.755,-0.377 -3.548,-0.657 -5.469,-0.657c-5.687,0 -10.097,1.771 -13.563,4.469c-1.767,1.377 -3.158,3.267 -4.031,5.594c-0.308,-0.105 -0.72,-0.276 -1.187,-0.594c-0.787,-0.535 -1.469,-1.269 -1.469,-2.625c0,-1.078 0.505,-1.982 1.344,-2.344c0.393,-0.143 0.657,-0.52 0.657,-0.939c0,-0.549 -0.452,-1 -1,-1c-0.021,0 -0.042,0.001 -0.064,0.002c-0.129,0.007 -0.257,0.038 -0.375,0.094c-1.659,0.716 -2.562,2.436 -2.562,4.187c0,2.095 1.217,3.516 2.344,4.281c0.694,0.473 1.289,0.707 1.718,0.844c-0.339,1.482 -0.479,3.121 -0.406,4.875c0.187,4.455 3.203,7.719 5.469,9.531c0.01,0.001 0.021,0.001 0.031,0c0.205,0.162 0.264,0.253 0.281,0.282c0.018,0.028 0.061,-0.035 -0.031,0.25c-0.299,0.92 -0.875,2.312 -0.875,2.312c0,0.011 0,0.021 0,0.031c-0.532,1.395 0.171,2.971 1.563,3.5c0,0.011 0,0.021 0,0.032l3.218,1.187c1.394,0.532 3.002,-0.169 3.532,-1.562c0,0 0.399,-1.126 0.75,-2.063c0.054,-0.142 0.095,-0.177 0.125,-0.218c0.04,0.002 0.044,0.016 0.125,0.031c0.635,0.115 2.05,0.531 4.406,0.531c2.403,0 3.8,-0.24 4.437,-0.281c0.124,-0.008 0.177,0.002 0.219,0c0.015,0.028 0.014,0.049 0.031,0.094c0.005,0.013 -0.004,0.017 0,0.031c0.323,0.955 0.708,1.849 0.719,1.875c0.006,0.015 0.026,0.016 0.031,0.031c0.543,1.367 2.09,2.056 3.469,1.531l3.219,-1.187c0,-0.011 0,-0.021 0,-0.031c1.394,-0.529 2.096,-2.105 1.562,-3.5l-0.5,-1.344c-0.026,-0.055 -0.057,-0.107 -0.093,-0.156c0,0 0.031,-0.004 0.031,0c0,0.004 -0.137,0.051 0.188,-0.125c2.429,-1.323 4.29,-3.355 5.468,-5.813c0.11,-0.231 0.202,-0.395 0.281,-0.469c0.08,-0.073 0.125,-0.125 0.438,-0.125l1.625,0c1.438,0 2.625,-1.187 2.625,-2.625l0,-4.875c0,-1.439 -1.184,-2.625 -2.625,-2.625l-1.625,0c-0.253,0 -0.32,-0.021 -0.344,-0.031c-0.494,-2.881 -2.437,-6.483 -6.719,-8.312c0.05,-2.06 0.506,-3.69 1.5,-6.375c0.049,-0.12 0.075,-0.249 0.075,-0.378c0,-0.549 -0.452,-1 -1.001,-1c-0.024,0 -0.049,0.001 -0.074,0.003l0.001,-0.001Zm-1.562,2.812c-0.606,1.881 -1.034,3.574 -1,5.531c0.005,0.426 0.283,0.805 0.687,0.938c4.186,1.461 5.728,4.714 6.125,7.219c0.154,0.953 1.169,1.593 2.313,1.593l1.625,0c0.351,0 0.625,0.27 0.625,0.625l0,4.875c0,0.352 -0.271,0.625 -0.625,0.625l-1.625,0c-0.736,0 -1.4,0.275 -1.813,0.657c-0.412,0.381 -0.595,0.803 -0.718,1.062c-1.014,2.114 -2.54,3.788 -4.594,4.906c-0.801,0.435 -1.231,1.237 -1.25,1.844c-0.016,0.518 0.16,0.798 0.219,0.906l-0.032,0l0.063,0.157l0.437,1.218c0.145,0.377 -0.023,0.793 -0.406,0.938l-3.219,1.219c-0.383,0.145 -0.795,-0.061 -0.937,-0.438c0,-0.01 0,-0.021 0,-0.031c0,0 -0.391,-0.896 -0.688,-1.781c-0.148,-0.436 -0.359,-0.918 -0.843,-1.219c-0.484,-0.302 -0.962,-0.279 -1.407,-0.25c-0.889,0.057 -2.038,0.281 -4.312,0.281c-2.145,0 -3.205,-0.344 -4.063,-0.5c-0.428,-0.078 -0.957,-0.148 -1.5,0.156c-0.542,0.305 -0.744,0.802 -0.937,1.313c-0.346,0.923 -0.781,2.031 -0.781,2.031c-0.145,0.38 -0.559,0.582 -0.938,0.438l-3.219,-1.219c-0.378,-0.144 -0.55,-0.56 -0.406,-0.938c0.018,-0.041 0.565,-1.384 0.906,-2.437c0.231,-0.713 0.132,-1.429 -0.156,-1.906c-0.287,-0.478 -0.676,-0.73 -0.781,-0.813c-2.022,-1.617 -4.569,-4.491 -4.719,-8.062c-0.212,-5.065 1.526,-8.598 4.25,-10.719c3.158,-2.458 7.061,-4.031 12.344,-4.031c2.016,0 3.921,0.247 5.719,0.687c0.469,0.117 0.959,-0.121 1.156,-0.562c1.121,-2.472 2.781,-3.565 4.5,-4.313l0,0Zm0.844,13.344c-1.059,0 -1.907,0.851 -1.907,1.906c0,1.057 0.848,1.938 1.907,1.938c1.056,0 1.907,-0.882 1.906,-1.938c0,-1.055 -0.85,-1.906 -1.906,-1.906l0,0Z" style="fill:#45ab7f;fill-rule:nonzero;stroke:#45ab7f;stroke-width:0.2px;"/></svg>